<svg width="120" height="32" viewBox="0 0 120 32" fill="none" xmlns="http://www.w3.org/2000/svg">
<g clip-path="url(#clip0_2001_88)">
<path d="M18.8354 31.6754C17.5855 31.6754 16.266 31.4428 14.8842 30.9775C8.79929 28.931 -0.206055 22.7022 -0.206055 15.8375C-0.206055 8.97274 8.79929 2.74647 14.8842 0.697441C18.4445 -0.5003 21.5865 -0.153846 24.2232 1.72938C28.386 4.70393 30.2508 10.9599 30.2508 15.8375C30.2508 20.7151 28.386 26.971 24.2232 29.9456C22.6098 31.0988 20.8073 31.6754 18.8354 31.6754ZM15.1606 1.50913C12.0285 2.56334 8.42584 4.66186 5.75685 6.98805C3.42895 9.01728 0.655392 12.1972 0.655392 15.8375C0.655392 19.4777 3.42895 22.6577 5.75685 24.6869C8.42584 27.0131 12.0285 29.1116 15.1606 30.1658C18.4445 31.2695 21.3226 30.9627 23.7227 29.2477C27.6391 26.4489 29.3918 20.4948 29.3918 15.8375C29.3918 11.1777 27.6391 5.22361 23.7227 2.42476C21.3251 0.712289 18.4445 0.402955 15.1606 1.50666V1.50913Z" fill="#02FF9E"/>
<path d="M15.2477 4.44897C22.667 2.39005 26.7751 9.53442 26.7751 15.9265C26.7751 22.3186 22.667 29.4629 15.2477 27.404C10.4251 26.0652 3.72021 21.4079 3.72021 15.9265C3.72021 10.4451 10.4275 5.78777 15.2477 4.44897Z" fill="#02FF9E"/>
<path d="M66.3207 10.1213L64.7992 19.1866C64.6861 19.8822 64.4502 20.4697 64.0888 20.949C63.7275 21.4283 63.2973 21.7872 62.7984 22.0281C62.2994 22.2665 61.793 22.3869 61.2768 22.3869C60.4509 22.3968 59.834 22.1313 59.4309 21.5905C59.0277 21.0498 58.8999 20.3197 59.0499 19.398L60.5861 10.1213H56.2182L54.5418 20.1575C54.3353 21.389 54.382 22.4459 54.6819 23.3284C54.9818 24.2108 55.4955 24.8917 56.2182 25.3661C56.9409 25.8405 57.8331 26.0789 58.895 26.0789C60.0699 26.0887 61.122 25.8085 62.0511 25.2407C62.9803 24.6729 63.6857 23.933 64.165 23.0211H64.3346L63.8701 25.8823H68.0561L70.6764 10.1213H66.3232H66.3207Z" fill="#02FF9E"/>
<path d="M85.0486 10.6423C84.3161 10.163 83.4042 9.92456 82.3152 9.92456C81.1403 9.92456 80.1153 10.1925 79.2353 10.7283C78.3578 11.2642 77.6745 11.9967 77.1853 12.9283H77.0452L77.495 10.1237H73.1984L70.5781 25.8846H74.9461L76.4405 16.7776C76.5536 16.1016 76.7773 15.524 77.1091 15.0447C77.4434 14.5653 77.8564 14.1966 78.348 13.9385C78.842 13.6804 79.3828 13.5502 79.9752 13.5502C80.8576 13.56 81.4992 13.8378 81.8998 14.381C82.298 14.9267 82.4185 15.6788 82.2587 16.6375L80.7077 25.8846H85.0756L86.752 15.8632C86.9585 14.6317 86.9093 13.5747 86.6045 12.6923C86.2997 11.8099 85.7811 11.1265 85.0486 10.6472V10.6423Z" fill="#02FF9E"/>
<path d="M97.3928 9.92459C95.7951 9.92459 94.3596 10.2687 93.0888 10.9545C91.8155 11.6403 90.7659 12.594 89.94 13.8157C89.1141 15.0373 88.5684 16.4556 88.3054 18.073C88.0424 19.6707 88.1186 21.0792 88.5316 22.2959C88.9445 23.5126 89.6696 24.4639 90.7094 25.1497C91.7467 25.8355 93.074 26.1845 94.689 26.1919C96.0974 26.182 97.3535 25.924 98.4571 25.4176C99.5608 24.9112 100.483 24.1984 101.22 23.2816C101.957 22.3647 102.466 21.3053 102.749 20.1033H98.6341C98.4473 20.6588 98.1892 21.1332 97.8672 21.5265C97.5427 21.9223 97.1642 22.2197 96.734 22.4213C96.3014 22.6228 95.8319 22.7236 95.3256 22.7236C94.6496 22.7236 94.0867 22.5392 93.6418 22.173C93.1945 21.8067 92.8921 21.2709 92.7324 20.5654C92.5726 19.86 92.5775 19.0095 92.7471 18.014C92.897 17.0185 93.1699 16.1729 93.5632 15.4773C93.9589 14.7817 94.4407 14.2507 95.0134 13.8845C95.5861 13.5182 96.2105 13.3339 96.8864 13.3339C97.6755 13.3339 98.2777 13.5748 98.6906 14.059C99.1036 14.5432 99.3051 15.175 99.2978 15.9542H103.413C103.619 14.1303 103.179 12.6702 102.095 11.569C101.011 10.4703 99.4428 9.91968 97.3952 9.91968L97.3928 9.92459Z" fill="#02FF9E"/>
<path d="M119.727 12.6726C119.417 11.7902 118.896 11.1093 118.163 10.6349C117.431 10.1605 116.514 9.9221 115.415 9.9221C114.223 9.9221 113.183 10.1876 112.301 10.7185C111.418 11.2494 110.728 11.9844 110.229 12.9234H110.032L111.357 4.87329H107.114L103.634 25.8772H108.002L109.509 16.7702C109.622 16.0942 109.848 15.5166 110.184 15.0373C110.524 14.558 110.942 14.1892 111.438 13.9312C111.937 13.6731 112.48 13.5428 113.073 13.5428C113.965 13.5526 114.614 13.8279 115.017 14.3662C115.42 14.907 115.538 15.6616 115.368 16.6276L113.832 25.8748H118.2L119.876 15.8533C120.083 14.612 120.031 13.5502 119.722 12.6677L119.727 12.6726Z" fill="#02FF9E"/>
<path d="M53.7725 8.30985C53.3546 7.24307 52.6369 6.40488 51.6242 5.79282C50.609 5.18323 49.3038 4.87598 47.7061 4.87598H39.42L35.9395 25.8799H40.3787L41.3053 20.3075L41.3348 20.1256L41.5094 19.0736L43.2644 8.51633H46.2509C47.1161 8.51633 47.8019 8.66135 48.3083 8.95386C48.8146 9.24637 49.1661 9.64948 49.3579 10.1657C49.5496 10.6819 49.5865 11.2988 49.4636 12.0117C49.3603 12.6974 49.1244 13.307 48.7581 13.838C48.3919 14.3689 47.9027 14.7819 47.2931 15.0793C46.6835 15.3743 45.9461 15.5242 45.0809 15.5242H44.0141L41.5069 19.0761H45.221C46.8458 19.0761 48.2763 18.7786 49.5127 18.1813C50.7491 17.584 51.752 16.7581 52.5287 15.7012C53.303 14.6442 53.8094 13.4152 54.0429 12.0141C54.2764 10.613 54.1855 9.38156 53.7676 8.31477L53.7725 8.30985Z" fill="#02FF9E"/>
</g>
<defs>
<clipPath id="clip0_2001_88">
<rect width="120" height="31.6751" fill="white"/>
</clipPath>
</defs>
</svg>
